<?xml version="1.0" encoding="UTF-8"?>
<!DOCTYPE svg PUBLIC "-//W3C//DTD SVG 1.1//EN" "http://www.w3.org/Graphics/SVG/1.1/DTD/svg11.dtd">
<!-- Creator: CorelDRAW 2018 (64-Bit) -->
<svg xmlns="http://www.w3.org/2000/svg" xml:space="preserve" width="256px" height="256px" version="1.1" style="shape-rendering:geometricPrecision; text-rendering:geometricPrecision; image-rendering:optimizeQuality; fill-rule:evenodd; clip-rule:evenodd"
viewBox="0 0 875 875"
 xmlns:xlink="http://www.w3.org/1999/xlink">
 <defs>
  <style type="text/css">
   <![CDATA[
    .fil1 {fill:#FEFEFE}
    .fil0 {fill:#003399}
   ]]>
  </style>
 </defs>
 <g id="Layer_x0020_1">
  <metadata id="CorelCorpID_0Corel-Layer"/>
  <circle class="fil0" cx="437" cy="437" r="437"/>
  <g id="_1038307440">
   <path class="fil1" d="M609 767l-446 -446c10,-24 23,-46 39,-66l183 182 52 -52 -235 -236c-59,49 -104,116 -124,192l392 392c-11,1 -22,2 -33,2 -136,0 -250,-91 -286,-215l-85 -86c-1,1 -1,2 -1,3 0,206 167,372 372,372 62,0 121,-15 172,-42z"/>
   <path class="fil1" d="M490 437l183 183c15,-20 28,-43 38,-66l-446 -446c52,-27 110,-43 172,-43 206,0 372,167 372,372 0,1 0,3 0,4l-85 -86c-36,-124 -151,-215 -287,-215 -11,0 -22,0 -32,1l392 392c-21,77 -65,144 -124,192l-236 -235 53 -53z"/>
  </g>
 </g>
</svg>
